PathFileType	4	(X/Y/Z)	C:/Users/beibeiliu/ov580/test_trc/User1\sequence.22_training_dense_right.trc
DataRate	CameraRate	NumFrames	NumMarkers	Units	OrigDataRate	OrigDataStartFrame	OrigNumFrames
120	120	22	19	mm	120	239	273
Frame#	Time	ThumbCMC			ThumbMCP			ThumbIP			ThumbTip			IndexMCP			IndexPIP			IndexTip			MiddleMCP			MiddlePIP			MiddleTip			RingMCP			RingPIP			RingTip			PinkyMCP			PinkyPIP			PinkyTip			BackHand1			BackHand2			BackHand3	
		X0	Y0	Z0	X1	Y1	Z1	X2	Y2	Z2	X3	Y3	Z3	X4	Y4	Z4	X5	Y5	Z5	X6	Y6	Z6	X7	Y7	Z7	X8	Y8	Z8	X9	Y9	Z9	X10	Y10	Z10	X11	Y11	Z11	X12	Y12	Z12	X13	Y13	Z13	X14	Y14	Z14	X15	Y15	Z15	X16	Y16	Z16	X17	Y17	Z17	X18	Y18	Z18	
238	1.98333	200.867	-23.4636	68.96	189.67	-18.6408	30.3266	183.959	-22.8401	0.90653	173.784	-24.9754	-19.7907	192.027	-86.8907	11.713	185.633	-86.817	-15.1052	167.842	-78.8803	-39.0599	169.06	-85.9611	7.51029	156.162	-53.5038	-5.52265	162.421	-33.4498	22.9087	147.498	-81.4064	15.0176	139.285	-50.6893	6.6785	149.991	-36.8968	39.8757	127.431	-77.6494	30.5579	131.39	-51.3587	21.5139	147.63	-39.4782	48.6956	163.513	-82.5319	80.1909	160.113	-62.6552	110.063	195.733	-64.5526	85.798	
239	1.99167	201.86	-25.6779	64.9581	190.127	-19.9127	31.9008	182.673	-24.5717	3.15758	172.269	-30.5444	-21.3756	196.353	-86.825	11.5888	183.69	-87.6699	-13.9595	168.009	-79.4166	-38.9076	168.624	-86.8981	8.75	155.273	-58.5817	-6.72024	164.913	-33.4147	23.7607	144.786	-81.4224	14.2368	139.718	-49.2604	9.37105	149.512	-37.6007	41.0189	127.514	-79.4546	33.8832	131.48	-52.6737	23.2241	144.689	-40.3177	53.341	162.492	-83.3032	76.5211	163.124	-64.314	107.752	193.436	-63.1875	87.9546	
240	2	198.648	-27.9813	68.6944	192.294	-19.5732	28.6764	182.859	-26.4429	4.76689	173.39	-27.7892	-18.772	191.228	-89.3699	10.8666	179.126	-88.7528	-16.5196	167.689	-79.0485	-36.8121	166.517	-87.076	8.15456	157.452	-58.891	-6.06457	165.809	-33.6136	26.6092	146.059	-81.9984	17.0275	141.551	-49.4587	9.95778	150.559	-36.5837	36.5902	125.726	-78.5524	30.5248	131.802	-51.647	24.5091	145.489	-43.2299	52.0815	159.006	-83.8503	81.6529	159.436	-64.9929	113.81	193.306	-66.7507	87.8868	
241	2.00833	199.843	-28.6626	68.4095	191.552	-20.9769	28.1192	182.28	-29.593	3.57977	170.898	-34.1364	-18.8223	192.474	-88.3748	12.4164	181.087	-89.3222	-13.0096	168.134	-78.6898	-36.9727	167.931	-86.6339	9.24529	158.521	-57.485	-5.96509	159.158	-36.0952	26.3211	145.665	-82.8519	17.0585	139.995	-49.5362	10.1539	146.732	-37.46	38.5655	127.092	-79.4492	33.5048	130.724	-51.0732	25.9128	145.903	-43.688	56.5441	160.712	-84.9051	82.1594	161.518	-63.9306	111.077	192.944	-67.3662	86.8265	
242	2.01667	199.891	-29.057	67.3491	189.73	-23.0048	31.2542	182.666	-27.3516	2.43303	171.635	-31.3157	-15.6441	196.313	-88.1237	13.9186	182.087	-89.0711	-13.5123	164.928	-79.5207	-36.0999	167.069	-86.9403	10.6498	159.079	-54.8886	-4.67403	159.578	-35.9845	26.6448	145.412	-83.676	19.6528	140.865	-50.8136	9.00338	147.743	-37.9563	42.1902	126.805	-80.6731	35.0056	129.95	-49.3371	26.6912	147.617	-43.1077	55.637	161.576	-84.2383	78.3887	160.159	-64.7148	112.283	193.105	-63.5875	89.7542	
243	2.025	200.366	-24.4039	70.5747	190.429	-19.971	31.8903	182.317	-28.9104	4.22555	174.091	-29.9899	-18.2544	193.292	-89.7283	10.4844	183.725	-88.7258	-13.795	167.645	-79.9469	-36.1591	168.521	-87.9407	12.9228	156.534	-58.9689	-4.77794	161.559	-35.9204	28.2694	147.937	-82.7285	18.0511	142.581	-52.3024	9.37192	149.303	-37.6183	38.2537	131.421	-80.5808	34.3012	132.581	-52.318	25.7468	145.009	-44.2595	50.5046	159.004	-86.63	79.8363	160.641	-64.7407	110.73	195.012	-64.1854	88.9787	
244	2.03333	199.14	-22.452	71.4781	188.535	-21.3291	32.219	181.963	-29.2918	2.61335	174.264	-30.3451	-18.4762	194.699	-87.8115	13.8522	184.264	-88.5946	-13.49	168.261	-78.8222	-37.652	174.05	-87.8834	12.61	158.215	-59.6617	-2.98214	164.282	-36.8632	29.6409	148.045	-84.8084	18.7167	139.276	-54.1957	10.689	151.183	-38.5824	42.635	130.922	-83.0062	34.9971	133.402	-54.635	25.231	146.03	-44.6582	55.3388	165.207	-84.3928	83.5169	161.83	-63.5727	112.115	196.917	-64.255	86.7506	
245	2.04167	199.314	-19.9656	70.9244	188.338	-19.3244	31.4599	181.981	-26.2286	6.78201	172.185	-30.8255	-16.3187	200.486	-84.0857	15.6838	191.871	-85.4593	-11.3679	169.986	-78.1476	-36.4809	175.047	-88.092	11.3113	161.335	-60.7151	-3.32524	163.746	-36.1301	26.554	150.721	-86.1095	20.4262	144.181	-53.4444	11.3795	149.067	-40.1048	39.6204	133.339	-83.3323	32.744	134.978	-56.8823	26.2187	149.083	-45.532	52.9674	168.392	-85.0794	80.1898	166.32	-62.5438	113.293	199.273	-58.2957	88.6224	
246	2.05	200.386	-15.4422	67.1666	187.527	-15.4069	29.1785	180.031	-24.5364	5.33689	171.894	-31.2522	-18.2711	206.138	-78.9302	14.2938	195.99	-82.1961	-15.3241	178.925	-78.2438	-35.2804	181.204	-85.0365	9.64786	162.843	-58.4077	-2.47808	169.061	-35.2471	29.7935	162.305	-83.8581	19.027	145.13	-53.6619	12.1724	151.248	-40.1863	41.7816	142.234	-84.7255	34.8247	137.921	-59.3847	25.1749	152.482	-44.306	55.8025	173.247	-84.5233	82.3247	169.707	-61.988	112.895	203.751	-52.738	88.3064	
247	2.05833	198.992	-8.91501	65.3985	185.547	-10.8815	27.593	179.399	-20.5541	2.12949	172.845	-24.5901	-20.4211	215.859	-70.9347	12.33	202.677	-76.2289	-15.9059	185.379	-72.9324	-39.6658	191.436	-79.3853	10.3464	169.589	-55.5299	-2.69308	170.882	-33.9896	28.5658	165.672	-82.8349	17.0188	148.486	-55.7483	14.3323	155.483	-39.8298	43.6546	147.779	-86.733	33.3337	143.639	-58.7799	27.5358	152.287	-45.131	55.7152	180.868	-78.3083	83.5463	178.031	-57.5605	110.198	209.284	-48.2362	86.3366	
248	2.06667	193.999	-4.86833	65.4836	181.08	-7.3877	29.4948	178.212	-19.8422	1.07513	171.134	-23.6669	-21.1957	221.365	-62.2994	10.9361	209.247	-70.4214	-13.0018	191.319	-71.0428	-35.8563	196.627	-76.7295	9.15772	174.784	-54.2838	-2.56806	172.521	-34.2691	30.3741	177.215	-80.2318	20.4491	156.968	-56.9347	12.507	159.556	-39.7933	45.0437	159.645	-88.4729	35.66	148.113	-62.2981	29.0968	156.522	-45.6296	58.8081	191.725	-74.9695	83.1721	181.532	-58.3007	113.723	209.394	-41.2705	85.88	
249	2.075	189.153	-1.83837	67.4668	177.836	-8.88992	26.8356	174.894	-19.1974	3.19896	169.438	-25.6734	-22.1895	224.993	-53.9347	9.67711	216.221	-59.9546	-15.1802	197.814	-65.5971	-35.3095	205.019	-71.0746	8.70957	179.423	-53.7146	-3.49407	172.82	-34.4154	33.5642	184.136	-76.9987	17.7724	159.197	-56.8214	15.7507	161.261	-40.7961	46.1616	171.993	-85.8868	34.2638	150.534	-67.2329	29.4135	160.55	-47.4201	57.674	201.748	-67.6147	81.8958	186.868	-51.5237	113.521	211.122	-34.9778	88.9708	
250	2.08333	186.806	1.54737	63.0982	171.065	-4.55175	28.3673	171.297	-15.9526	0.56576	167.07	-25.1142	-18.543	228.433	-42.2199	7.49999	219.315	-53.6974	-12.3735	203.895	-58.4136	-35.0299	211.807	-62.2997	11.808	180.078	-52.8487	-1.02747	173.261	-34.0572	33.14	191.79	-76.7934	23.2518	162.829	-60.2049	16.4375	162.515	-42.4217	48.3046	179.561	-86.3575	36.0115	156.647	-66.5935	29.7987	160.475	-48.3284	56.5297	206.743	-61.2997	83.7718	192.42	-47.8467	110.544	214.008	-25.0992	84.6893	
251	2.09167	181.958	5.91431	64.412	168.044	-6.31424	31.8464	167.592	-16.272	5.22017	165.857	-24.3688	-19.9077	229.542	-32.1759	12.3365	221.857	-43.5183	-16.4582	203.455	-56.5599	-38.3353	216.605	-54.1815	11.5551	182.652	-49.2804	-0.620432	172.699	-30.8023	31.3013	197.869	-70.7596	21.1382	165.778	-60.9979	16.9367	165.339	-42.2453	46.9958	186.04	-86.2032	36.1908	162.747	-67.0987	30.849	163.634	-45.9735	56.6637	213.026	-57.0723	81.9179	194.394	-48.3666	111.261	212.464	-20.0614	85.2435	
252	2.1	176.106	5.8438	64.6135	165.95	-5.60198	28.057	165.55	-16.2928	3.22454	162.498	-25.8765	-15.5391	228.422	-30.3882	13.0801	221.548	-40.9037	-15.5604	206.715	-50.8235	-39.6092	216.897	-50.5978	11.022	184.777	-51.1175	-0.810758	174.407	-29.9167	34.492	201.556	-67.4383	21.7248	168.84	-60.6018	17.4155	166.833	-42.3631	48.3456	193.708	-79.8249	35.4886	165.749	-69.5754	31.4803	164.375	-49.0843	58.3366	215.129	-54.1813	83.6343	196.948	-45.3509	113.142	210.744	-16.583	86.9728	
253	2.10833	172.815	5.96576	63.5605	160.338	-7.10844	32.9661	163.189	-16.2011	0.643888	159.653	-23.0892	-19.629	227.334	-19.0159	10.0347	222.337	-32.1147	-16.3835	209.266	-43.6349	-36.5648	217.429	-42.5104	10.0984	182.429	-47.0626	0.873521	172.406	-28.1522	34.5122	203.991	-65.1279	20.5582	173.154	-58.5265	17.8245	169.039	-41.5059	48.5918	197.979	-79.8357	37.1031	171.972	-68.9095	30.87	168.216	-48.405	58.7952	216.784	-48.6187	80.4572	200.471	-37.7273	112.29	208.669	-11.3649	87.4824	
254	2.11667	166.369	3.39761	67.3666	157.799	-10.3337	32.52	160.871	-17.8303	5.31138	161.459	-27.2484	-16.9745	225.421	-15.7938	8.19389	221.131	-27.5709	-14.0767	206.71	-39.8433	-41.3054	217.934	-36.5639	10.3087	183.87	-43.8607	0.237465	173.301	-28.5585	36.8868	207.196	-59.3932	19.9162	173.581	-56.3074	18.8671	172.173	-41.0974	50.9112	203.926	-78.0082	35.8187	176.052	-63.7547	33.2798	175.348	-48.5281	58.2029	218.965	-44.1568	83.2242	202.607	-34.3357	109.815	204.003	-5.18633	87.1859	
255	2.125	159.372	3.34602	68.7711	154.491	-10.3288	30.5225	155.498	-17.3404	2.87014	156.063	-25.2838	-19.9459	220.62	-4.97686	11.5215	219.237	-18.0981	-17.178	206.124	-35.0733	-41.2452	216.815	-31.8685	8.52968	185.218	-42.6343	0.523443	171.521	-31.052	33.5644	211.186	-53.173	21.8397	174.701	-56.1528	21.7061	173.127	-42.0719	49.5897	209.634	-73.0981	35.3288	179.516	-66.1331	33.7484	177.476	-47.6793	58.2983	220.583	-36.9788	79.1392	200.951	-32.7893	113.034	199.707	-1.09148	84.944	
256	2.13333	158.021	0.545008	67.5909	150.362	-13.5732	33.1159	154.071	-19.2733	5.67607	154.266	-26.8193	-13.8377	215.477	-0.428303	10.1116	215.318	-9.41068	-15.9644	204.255	-27.9592	-38.6268	216.537	-26.9292	11.4647	184.702	-41.5828	1.42934	169.403	-28.5957	36.2807	208.984	-46.094	16.7794	179.494	-57.5958	20.8794	172.726	-42.7886	50.0811	211.049	-67.3298	32.1892	182.486	-62.0504	34.3972	177.479	-47.8757	58.8362	218.931	-28.4691	79.7345	202.82	-28.5324	110.924	196.882	-1.0528	89.7449	
257	2.14167	148.985	-0.621299	70.8582	146.772	-16.1166	36.5073	147.137	-20.8021	8.31498	151.259	-27.0574	-14.502	207.037	8.23624	8.13722	208.878	-8.23114	-18.7496	199.625	-23.6221	-38.74	210.538	-18.4094	7.68284	182.698	-36.942	0.406061	168.236	-29.4805	37.7365	209.633	-40.8627	17.069	178.762	-54.0428	20.3095	172.392	-41.4625	49.5485	213.304	-61.1012	33.2254	185.454	-62.9965	32.8167	180.059	-46.0974	62.4942	219.084	-25.1423	77.0926	203.185	-27.1703	110.848	190.926	1.17588	89.1328	
258	2.15	145.914	-4.95155	72.4735	140.004	-16.0797	33.6349	144.196	-21.4856	8.22459	146.114	-27.9448	-16.3185	202.096	11.5941	10.9436	203.014	-2.24068	-19.3906	196.134	-19.6575	-36.6927	208.307	-16.6761	9.04304	176.606	-34.2356	0.917775	166.289	-28.1787	38.4298	209.234	-40.8796	15.6842	177.902	-52.1776	19.1311	174.452	-40.2436	52.0606	215.337	-52.832	33.9689	185.111	-62.7338	33.6953	180.425	-43.0397	60.6168	216.669	-18.116	78.5107	203.649	-27.0536	109.281	186.988	6.05306	87.9027	
259	2.15833	142.28	-4.34292	72.1904	139.794	-18.2672	35.9528	141.872	-21.8291	9.25662	141.081	-28.466	-13.2995	193.809	17.4248	7.35219	194.871	4.73799	-19.1242	188.151	-14.1388	-41.6766	203.077	-13.3159	5.5223	174.537	-29.7226	-0.604966	164.127	-30.6085	36.3102	206.791	-30.2327	15.7066	180.244	-49.0547	16.1731	170.605	-38.4013	47.498	214.765	-51.3109	28.8918	183.931	-57.5285	32.2616	177.153	-42.7021	58.0527	216.59	-14.8917	75.7102	200.539	-25.8887	110.487	179.45	7.20824	88.7662	
